<mxfile host="app.diagrams.net" modified="2021-01-20T19:51:40.456Z" agent="5.0 (Windows NT 10.0; Win64; x64) AppleWebKit/537.36 (KHTML, like Gecko) Chrome/87.0.4280.141 Safari/537.36" etag="n8shLVHyv81R-rqpPcQv" version="14.2.4" type="github">
  <diagram id="-nZhIT0GEomVvhK9EMMn" name="Page-1">
    <mxGraphModel dx="1673" dy="829" grid="1" gridSize="10" guides="1" tooltips="1" connect="1" arrows="1" fold="1" page="1" pageScale="1" pageWidth="827" pageHeight="1169" math="0" shadow="0">
      <root>
        <mxCell id="0" />
        <mxCell id="1" parent="0" />
        <mxCell id="LJ90Sj-Bl6qNDqzlJ8qj-64" value="" style="rounded=0;whiteSpace=wrap;html=1;strokeWidth=2;dashed=1;gradientColor=#97d077;fillColor=#d5e8d4;strokeColor=#82b366;" vertex="1" parent="1">
          <mxGeometry x="620" y="120" width="190" height="105" as="geometry" />
        </mxCell>
        <mxCell id="LJ90Sj-Bl6qNDqzlJ8qj-62" value="" style="rounded=0;whiteSpace=wrap;html=1;strokeWidth=2;fillColor=#dae8fc;gradientColor=#7ea6e0;strokeColor=#7EA6E0;" vertex="1" parent="1">
          <mxGeometry x="40" y="560" width="760" height="160" as="geometry" />
        </mxCell>
        <mxCell id="LJ90Sj-Bl6qNDqzlJ8qj-61" value="" style="rounded=0;whiteSpace=wrap;html=1;strokeWidth=2;dashed=1;gradientColor=#97d077;fillColor=#d5e8d4;strokeColor=#82b366;" vertex="1" parent="1">
          <mxGeometry x="14" y="445" width="406" height="85" as="geometry" />
        </mxCell>
        <mxCell id="LJ90Sj-Bl6qNDqzlJ8qj-60" value="" style="rounded=0;whiteSpace=wrap;html=1;strokeWidth=2;dashed=1;gradientColor=#97d077;fillColor=#d5e8d4;strokeColor=#82b366;" vertex="1" parent="1">
          <mxGeometry x="390" y="325" width="370" height="105" as="geometry" />
        </mxCell>
        <mxCell id="LJ90Sj-Bl6qNDqzlJ8qj-59" value="" style="rounded=0;whiteSpace=wrap;html=1;strokeWidth=2;dashed=1;gradientColor=#ffd966;fillColor=#fff2cc;strokeColor=#d6b656;" vertex="1" parent="1">
          <mxGeometry x="14" y="325" width="366" height="105" as="geometry" />
        </mxCell>
        <mxCell id="LJ90Sj-Bl6qNDqzlJ8qj-58" value="" style="rounded=0;whiteSpace=wrap;html=1;strokeWidth=2;dashed=1;gradientColor=#ffd966;fillColor=#fff2cc;strokeColor=#d6b656;" vertex="1" parent="1">
          <mxGeometry x="10" y="10" width="590" height="240" as="geometry" />
        </mxCell>
        <mxCell id="LJ90Sj-Bl6qNDqzlJ8qj-3" style="edgeStyle=orthogonalEdgeStyle;rounded=0;orthogonalLoop=1;jettySize=auto;html=1;strokeWidth=2;" edge="1" parent="1" source="LJ90Sj-Bl6qNDqzlJ8qj-1" target="LJ90Sj-Bl6qNDqzlJ8qj-2">
          <mxGeometry relative="1" as="geometry" />
        </mxCell>
        <mxCell id="LJ90Sj-Bl6qNDqzlJ8qj-1" value="User" style="ellipse;whiteSpace=wrap;html=1;fillColor=#d5e8d4;strokeColor=#82b366;" vertex="1" parent="1">
          <mxGeometry x="30" y="20" width="120" height="80" as="geometry" />
        </mxCell>
        <mxCell id="LJ90Sj-Bl6qNDqzlJ8qj-6" style="edgeStyle=orthogonalEdgeStyle;rounded=0;orthogonalLoop=1;jettySize=auto;html=1;strokeWidth=2;" edge="1" parent="1" source="LJ90Sj-Bl6qNDqzlJ8qj-2" target="LJ90Sj-Bl6qNDqzlJ8qj-5">
          <mxGeometry relative="1" as="geometry" />
        </mxCell>
        <mxCell id="LJ90Sj-Bl6qNDqzlJ8qj-2" value="Acceuil" style="whiteSpace=wrap;html=1;aspect=fixed;" vertex="1" parent="1">
          <mxGeometry x="50" y="150" width="80" height="80" as="geometry" />
        </mxCell>
        <mxCell id="LJ90Sj-Bl6qNDqzlJ8qj-36" style="edgeStyle=orthogonalEdgeStyle;rounded=0;orthogonalLoop=1;jettySize=auto;html=1;entryX=0;entryY=0.5;entryDx=0;entryDy=0;strokeWidth=2;" edge="1" parent="1" source="LJ90Sj-Bl6qNDqzlJ8qj-5" target="LJ90Sj-Bl6qNDqzlJ8qj-35">
          <mxGeometry relative="1" as="geometry" />
        </mxCell>
        <mxCell id="LJ90Sj-Bl6qNDqzlJ8qj-5" value="&lt;span&gt;Page Perdu-Page Vu/Trouvé&amp;nbsp;&lt;/span&gt;" style="rounded=0;whiteSpace=wrap;html=1;fillColor=#f8cecc;strokeColor=#b85450;" vertex="1" parent="1">
          <mxGeometry x="200" y="150" width="160" height="80" as="geometry" />
        </mxCell>
        <mxCell id="LJ90Sj-Bl6qNDqzlJ8qj-7" value="&lt;span&gt;Créer une annonce&lt;/span&gt;" style="rounded=0;whiteSpace=wrap;html=1;fillColor=#f8cecc;strokeColor=#b85450;" vertex="1" parent="1">
          <mxGeometry x="400" y="30" width="180" height="80" as="geometry" />
        </mxCell>
        <mxCell id="LJ90Sj-Bl6qNDqzlJ8qj-8" value="" style="endArrow=classic;html=1;exitX=1;exitY=0;exitDx=0;exitDy=0;strokeWidth=2;fillColor=#1ba1e2;strokeColor=#006EAF;" edge="1" parent="1" source="LJ90Sj-Bl6qNDqzlJ8qj-2">
          <mxGeometry relative="1" as="geometry">
            <mxPoint x="360" y="260" as="sourcePoint" />
            <mxPoint x="490" y="110" as="targetPoint" />
            <Array as="points">
              <mxPoint x="130" y="130" />
              <mxPoint x="490" y="130" />
            </Array>
          </mxGeometry>
        </mxCell>
        <mxCell id="LJ90Sj-Bl6qNDqzlJ8qj-10" value="Page de connexion/Inscription" style="rounded=0;whiteSpace=wrap;html=1;fillColor=#e1d5e7;strokeColor=#9673a6;" vertex="1" parent="1">
          <mxGeometry x="60" y="360" width="120" height="60" as="geometry" />
        </mxCell>
        <mxCell id="LJ90Sj-Bl6qNDqzlJ8qj-25" style="edgeStyle=orthogonalEdgeStyle;rounded=0;orthogonalLoop=1;jettySize=auto;html=1;exitX=0.819;exitY=0.988;exitDx=0;exitDy=0;exitPerimeter=0;strokeWidth=2;fillColor=#1ba1e2;strokeColor=#006EAF;" edge="1" parent="1" source="LJ90Sj-Bl6qNDqzlJ8qj-11" target="LJ90Sj-Bl6qNDqzlJ8qj-24">
          <mxGeometry relative="1" as="geometry">
            <mxPoint x="295" y="440" as="targetPoint" />
            <Array as="points">
              <mxPoint x="330" y="419" />
            </Array>
          </mxGeometry>
        </mxCell>
        <mxCell id="LJ90Sj-Bl6qNDqzlJ8qj-30" style="edgeStyle=orthogonalEdgeStyle;rounded=0;orthogonalLoop=1;jettySize=auto;html=1;entryX=0;entryY=0.5;entryDx=0;entryDy=0;strokeWidth=2;fillColor=#1ba1e2;strokeColor=#006EAF;" edge="1" parent="1" source="LJ90Sj-Bl6qNDqzlJ8qj-11" target="LJ90Sj-Bl6qNDqzlJ8qj-29">
          <mxGeometry relative="1" as="geometry" />
        </mxCell>
        <mxCell id="LJ90Sj-Bl6qNDqzlJ8qj-11" value="Page de gestion de Profil" style="rounded=0;whiteSpace=wrap;html=1;fillColor=#e1d5e7;strokeColor=#9673a6;" vertex="1" parent="1">
          <mxGeometry x="200" y="360" width="160" height="60" as="geometry" />
        </mxCell>
        <mxCell id="LJ90Sj-Bl6qNDqzlJ8qj-12" value="" style="endArrow=none;html=1;exitX=0.5;exitY=1;exitDx=0;exitDy=0;strokeWidth=2;" edge="1" parent="1" source="LJ90Sj-Bl6qNDqzlJ8qj-2">
          <mxGeometry width="50" height="50" relative="1" as="geometry">
            <mxPoint x="320" y="350" as="sourcePoint" />
            <mxPoint x="90" y="280" as="targetPoint" />
          </mxGeometry>
        </mxCell>
        <mxCell id="LJ90Sj-Bl6qNDqzlJ8qj-13" value="" style="endArrow=classic;html=1;entryX=0.25;entryY=0;entryDx=0;entryDy=0;strokeWidth=2;fillColor=#e51400;strokeColor=#B20000;" edge="1" parent="1" target="LJ90Sj-Bl6qNDqzlJ8qj-10">
          <mxGeometry relative="1" as="geometry">
            <mxPoint x="90" y="280" as="sourcePoint" />
            <mxPoint x="400" y="330" as="targetPoint" />
          </mxGeometry>
        </mxCell>
        <mxCell id="LJ90Sj-Bl6qNDqzlJ8qj-15" value="" style="endArrow=classic;html=1;entryX=0.5;entryY=0;entryDx=0;entryDy=0;strokeWidth=2;fillColor=#1ba1e2;strokeColor=#006EAF;" edge="1" parent="1" target="LJ90Sj-Bl6qNDqzlJ8qj-11">
          <mxGeometry relative="1" as="geometry">
            <mxPoint x="90" y="280" as="sourcePoint" />
            <mxPoint x="100" y="370.0000000000001" as="targetPoint" />
            <Array as="points">
              <mxPoint x="280" y="280" />
            </Array>
          </mxGeometry>
        </mxCell>
        <mxCell id="LJ90Sj-Bl6qNDqzlJ8qj-21" value="Consulter les pages de profil des autres Users" style="rounded=0;whiteSpace=wrap;html=1;strokeWidth=1;fillColor=#e1d5e7;strokeColor=#9673a6;" vertex="1" parent="1">
          <mxGeometry x="60" y="450" width="160" height="60" as="geometry" />
        </mxCell>
        <mxCell id="LJ90Sj-Bl6qNDqzlJ8qj-23" value="" style="endArrow=classic;html=1;entryX=0;entryY=0.5;entryDx=0;entryDy=0;exitX=0;exitY=1;exitDx=0;exitDy=0;strokeWidth=2;" edge="1" parent="1" source="LJ90Sj-Bl6qNDqzlJ8qj-2" target="LJ90Sj-Bl6qNDqzlJ8qj-21">
          <mxGeometry width="50" height="50" relative="1" as="geometry">
            <mxPoint x="30" y="480" as="sourcePoint" />
            <mxPoint x="60" y="560" as="targetPoint" />
            <Array as="points">
              <mxPoint x="30" y="230" />
              <mxPoint x="30" y="480" />
            </Array>
          </mxGeometry>
        </mxCell>
        <mxCell id="LJ90Sj-Bl6qNDqzlJ8qj-24" value="Formulaire pour rajouter une animal a son profil" style="rounded=0;whiteSpace=wrap;html=1;strokeColor=#9673a6;strokeWidth=1;fillColor=#e1d5e7;" vertex="1" parent="1">
          <mxGeometry x="260" y="450" width="140" height="60" as="geometry" />
        </mxCell>
        <mxCell id="LJ90Sj-Bl6qNDqzlJ8qj-26" value="Contacter un user" style="rounded=0;whiteSpace=wrap;html=1;strokeColor=#d6b656;strokeWidth=1;fillColor=#fff2cc;" vertex="1" parent="1">
          <mxGeometry x="640" y="150" width="120" height="60" as="geometry" />
        </mxCell>
        <mxCell id="LJ90Sj-Bl6qNDqzlJ8qj-29" value="Gestion de son calendrier d&#39;hebergement" style="rounded=0;whiteSpace=wrap;html=1;strokeColor=#6c8ebf;strokeWidth=1;fillColor=#dae8fc;" vertex="1" parent="1">
          <mxGeometry x="400" y="360" width="120" height="60" as="geometry" />
        </mxCell>
        <mxCell id="LJ90Sj-Bl6qNDqzlJ8qj-31" value="Consulter les Agendas des Users" style="rounded=0;whiteSpace=wrap;html=1;strokeWidth=1;fillColor=#dae8fc;strokeColor=#6c8ebf;" vertex="1" parent="1">
          <mxGeometry x="560" y="360" width="160" height="60" as="geometry" />
        </mxCell>
        <mxCell id="LJ90Sj-Bl6qNDqzlJ8qj-33" value="" style="endArrow=classic;html=1;exitX=1;exitY=0;exitDx=0;exitDy=0;entryX=0.665;entryY=1.007;entryDx=0;entryDy=0;entryPerimeter=0;strokeWidth=2;fillColor=#1ba1e2;strokeColor=#006EAF;" edge="1" parent="1" source="LJ90Sj-Bl6qNDqzlJ8qj-31" target="LJ90Sj-Bl6qNDqzlJ8qj-26">
          <mxGeometry relative="1" as="geometry">
            <mxPoint x="710" y="320" as="sourcePoint" />
            <mxPoint x="720" y="230" as="targetPoint" />
            <Array as="points">
              <mxPoint x="720" y="300" />
            </Array>
          </mxGeometry>
        </mxCell>
        <mxCell id="LJ90Sj-Bl6qNDqzlJ8qj-35" value="&lt;span&gt;Consulter une annonce&amp;nbsp;&lt;/span&gt;précise" style="rounded=0;whiteSpace=wrap;html=1;fillColor=#f8cecc;strokeColor=#b85450;" vertex="1" parent="1">
          <mxGeometry x="400" y="150" width="160" height="80" as="geometry" />
        </mxCell>
        <mxCell id="LJ90Sj-Bl6qNDqzlJ8qj-37" value="" style="endArrow=classic;html=1;exitX=1;exitY=0;exitDx=0;exitDy=0;entryX=0.75;entryY=0;entryDx=0;entryDy=0;strokeWidth=2;fillColor=#1ba1e2;strokeColor=#006EAF;" edge="1" parent="1" source="LJ90Sj-Bl6qNDqzlJ8qj-35" target="LJ90Sj-Bl6qNDqzlJ8qj-26">
          <mxGeometry relative="1" as="geometry">
            <mxPoint x="640" y="99.99999999999977" as="sourcePoint" />
            <mxPoint x="1000" y="59.99999999999977" as="targetPoint" />
            <Array as="points">
              <mxPoint x="560" y="130" />
              <mxPoint x="730" y="130" />
            </Array>
          </mxGeometry>
        </mxCell>
        <mxCell id="LJ90Sj-Bl6qNDqzlJ8qj-41" value="Légende" style="text;html=1;strokeColor=none;fillColor=none;align=center;verticalAlign=middle;whiteSpace=wrap;rounded=0;" vertex="1" parent="1">
          <mxGeometry x="50" y="565" width="40" height="20" as="geometry" />
        </mxCell>
        <mxCell id="LJ90Sj-Bl6qNDqzlJ8qj-42" value="" style="rounded=0;whiteSpace=wrap;html=1;strokeWidth=2;fillColor=none;gradientColor=none;strokeColor=#7EA6E0;" vertex="1" parent="1">
          <mxGeometry x="40" y="560" width="80" height="40" as="geometry" />
        </mxCell>
        <mxCell id="LJ90Sj-Bl6qNDqzlJ8qj-46" value="Aucun prés-requis" style="text;html=1;strokeColor=none;fillColor=none;align=center;verticalAlign=middle;whiteSpace=wrap;rounded=0;" vertex="1" parent="1">
          <mxGeometry x="162" y="565" width="110" height="20" as="geometry" />
        </mxCell>
        <mxCell id="LJ90Sj-Bl6qNDqzlJ8qj-47" value="Si User pas connecter" style="text;html=1;strokeColor=none;fillColor=none;align=center;verticalAlign=middle;whiteSpace=wrap;rounded=0;" vertex="1" parent="1">
          <mxGeometry x="162" y="610" width="130" height="20" as="geometry" />
        </mxCell>
        <mxCell id="LJ90Sj-Bl6qNDqzlJ8qj-48" value="Si User connecter" style="text;html=1;strokeColor=none;fillColor=none;align=center;verticalAlign=middle;whiteSpace=wrap;rounded=0;" vertex="1" parent="1">
          <mxGeometry x="162" y="660" width="110" height="20" as="geometry" />
        </mxCell>
        <mxCell id="LJ90Sj-Bl6qNDqzlJ8qj-49" value="Parti Profil" style="rounded=0;whiteSpace=wrap;html=1;strokeColor=#9673a6;strokeWidth=1;fillColor=#e1d5e7;" vertex="1" parent="1">
          <mxGeometry x="320" y="565" width="140" height="60" as="geometry" />
        </mxCell>
        <mxCell id="LJ90Sj-Bl6qNDqzlJ8qj-50" value="Parti Alerte" style="rounded=0;whiteSpace=wrap;html=1;strokeColor=#b85450;strokeWidth=1;fillColor=#f8cecc;" vertex="1" parent="1">
          <mxGeometry x="320" y="640" width="140" height="60" as="geometry" />
        </mxCell>
        <mxCell id="LJ90Sj-Bl6qNDqzlJ8qj-51" value="Parti Contact" style="rounded=0;whiteSpace=wrap;html=1;strokeColor=#d6b656;strokeWidth=1;fillColor=#fff2cc;" vertex="1" parent="1">
          <mxGeometry x="480" y="565" width="140" height="60" as="geometry" />
        </mxCell>
        <mxCell id="LJ90Sj-Bl6qNDqzlJ8qj-52" value="Parti Hebergement" style="rounded=0;whiteSpace=wrap;html=1;strokeColor=#6c8ebf;strokeWidth=1;fillColor=#dae8fc;" vertex="1" parent="1">
          <mxGeometry x="480" y="640" width="140" height="60" as="geometry" />
        </mxCell>
        <mxCell id="LJ90Sj-Bl6qNDqzlJ8qj-55" value="" style="endArrow=classic;html=1;strokeWidth=2;exitX=1;exitY=0.75;exitDx=0;exitDy=0;entryX=0.25;entryY=1;entryDx=0;entryDy=0;" edge="1" parent="1" source="LJ90Sj-Bl6qNDqzlJ8qj-21" target="LJ90Sj-Bl6qNDqzlJ8qj-31">
          <mxGeometry width="50" height="50" relative="1" as="geometry">
            <mxPoint x="360" y="410" as="sourcePoint" />
            <mxPoint x="410" y="360" as="targetPoint" />
            <Array as="points">
              <mxPoint x="240" y="495" />
              <mxPoint x="240" y="520" />
              <mxPoint x="600" y="520" />
            </Array>
          </mxGeometry>
        </mxCell>
        <mxCell id="LJ90Sj-Bl6qNDqzlJ8qj-56" value="V1" style="rounded=0;whiteSpace=wrap;html=1;strokeWidth=2;dashed=1;gradientColor=#ffd966;fillColor=#fff2cc;strokeColor=#d6b656;" vertex="1" parent="1">
          <mxGeometry x="640" y="565" width="120" height="60" as="geometry" />
        </mxCell>
        <mxCell id="LJ90Sj-Bl6qNDqzlJ8qj-57" value="V2" style="rounded=0;whiteSpace=wrap;html=1;strokeWidth=2;dashed=1;gradientColor=#97d077;fillColor=#d5e8d4;strokeColor=#82b366;" vertex="1" parent="1">
          <mxGeometry x="640" y="640" width="120" height="60" as="geometry" />
        </mxCell>
        <mxCell id="LJ90Sj-Bl6qNDqzlJ8qj-68" value="" style="endArrow=classic;html=1;strokeWidth=3;" edge="1" parent="1">
          <mxGeometry width="50" height="50" relative="1" as="geometry">
            <mxPoint x="170" y="594.8" as="sourcePoint" />
            <mxPoint x="260" y="594.8" as="targetPoint" />
          </mxGeometry>
        </mxCell>
        <mxCell id="LJ90Sj-Bl6qNDqzlJ8qj-69" value="" style="endArrow=classic;html=1;strokeWidth=3;fillColor=#1ba1e2;strokeColor=#006EAF;" edge="1" parent="1">
          <mxGeometry width="50" height="50" relative="1" as="geometry">
            <mxPoint x="170" y="690" as="sourcePoint" />
            <mxPoint x="260" y="690" as="targetPoint" />
          </mxGeometry>
        </mxCell>
        <mxCell id="LJ90Sj-Bl6qNDqzlJ8qj-70" value="" style="endArrow=classic;html=1;strokeWidth=3;fillColor=#e51400;strokeColor=#B20000;" edge="1" parent="1">
          <mxGeometry width="50" height="50" relative="1" as="geometry">
            <mxPoint x="170" y="639.6" as="sourcePoint" />
            <mxPoint x="260" y="639.6" as="targetPoint" />
          </mxGeometry>
        </mxCell>
      </root>
    </mxGraphModel>
  </diagram>
</mxfile>
